<svg xmlns="http://www.w3.org/2000/svg" viewBox="0 0 31.5 46.115">
    <path fill="#00973d" transform="translate(-121.264 -36.669)"
        d="M150.431,36.669H123.694a2.431,2.431,0,0,0-2.43,2.431V55.5c2.1-1.6,4.725-3.829,9.462-2.66,4.083,1.007,4.973,4.154,11.43,7.729,3.953,2.189,7.662.5,10.705-1.268V39.1a2.431,2.431,0,0,0-2.431-2.431" />
    <path fill="#00509c" transform="translate(-121.265 -109.837)"
        d="M144.245,141.048a7.677,7.677,0,0,1-3.386-1.283c-2.263-1.4-4.432-3.68-9.045-6.075-3.675-1.786-7.26-.424-10.545,1.448l0,0v18.383a2.431,2.431,0,0,0,2.43,2.43h26.736a2.431,2.431,0,0,0,2.431-2.43V138.535c-2.854,1.636-5.594,2.965-8.618,2.513" />
    <path fill="#fff" transform="translate(-121.264 -87.023)"
        d="M142.156,110.918c-6.458-3.575-7.348-6.722-11.43-7.729-4.737-1.169-7.364,1.063-9.462,2.66l0,3.308v3.166c3.285-1.872,6.919-3.33,10.545-1.448,4.614,2.395,6.783,4.678,9.045,6.075a8.661,8.661,0,0,0,3.386,1.283c3.025.452,5.765-.877,8.618-2.513l-.007-2.925.007-3.145c-3.043,1.768-6.752,3.457-10.705,1.268" />
</svg>